<svg
    width="1380"
    height="1300"
    viewBox="0 0 1380 1300"
    fill="none"
    xmlns="http://www.w3.org/2000/svg"
>
    <path
        d="M589.95 256.7c0 30.488-24.712 55.2-55.2 55.2s-55.2-24.712-55.2-55.2 24.712-55.2 55.2-55.2 55.2 24.712 55.2 55.2M310.5 487.85c0 30.488-24.712 55.2-55.2 55.2s-55.2-24.712-55.2-55.2 24.712-55.2 55.2-55.2 55.2 24.712 55.2 55.2M200.1 650c0 30.488-24.712 55.2-55.2 55.2S89.7 680.488 89.7 650s24.712-55.2 55.2-55.2 55.2 24.712 55.2 55.2m1041.9 0c0 30.488-24.71 55.2-55.2 55.2s-55.2-24.712-55.2-55.2 24.71-55.2 55.2-55.2 55.2 24.712 55.2 55.2M313.95 815.6c0 30.488-24.712 55.2-55.2 55.2s-55.2-24.712-55.2-55.2 24.712-55.2 55.2-55.2 55.2 24.712 55.2 55.2m865.95-327.75c0 30.488-24.71 55.2-55.2 55.2s-55.2-24.712-55.2-55.2 24.71-55.2 55.2-55.2 55.2 24.712 55.2 55.2m20.7 313.95c0 30.488-24.71 55.2-55.2 55.2s-55.2-24.712-55.2-55.2 24.71-55.2 55.2-55.2 55.2 24.712 55.2 55.2M745.2 129.05c0 30.488-24.712 55.2-55.2 55.2s-55.2-24.712-55.2-55.2 24.712-55.2 55.2-55.2 55.2 24.712 55.2 55.2m0 1069.5c0 30.49-24.712 55.2-55.2 55.2s-55.2-24.71-55.2-55.2 24.712-55.2 55.2-55.2 55.2 24.71 55.2 55.2M897 256.7c0 30.488-24.712 55.2-55.2 55.2s-55.2-24.712-55.2-55.2 24.712-55.2 55.2-55.2 55.2 24.712 55.2 55.2m-300.15 810.75c0 30.49-24.712 55.2-55.2 55.2s-55.2-24.71-55.2-55.2 24.712-55.2 55.2-55.2 55.2 24.71 55.2 55.2m320.85 0c0 30.49-24.712 55.2-55.2 55.2s-55.2-24.71-55.2-55.2 24.712-55.2 55.2-55.2 55.2 24.71 55.2 55.2"
        fill="#000"
    />
    <path
        d="M512.325 275.675a20.7 20.7 0 0 1 20.7-20.7h3.45a20.7 20.7 0 0 1 20.7 20.7v213.9a20.7 20.7 0 0 1-20.7 20.7h-3.45a20.7 20.7 0 0 1-20.7-20.7zm307.05 0a20.7 20.7 0 0 1 20.7-20.7h3.45a20.7 20.7 0 0 1 20.7 20.7v213.9a20.7 20.7 0 0 1-20.7 20.7h-3.45a20.7 20.7 0 0 1-20.7-20.7zm20.7 524.4a20.7 20.7 0 0 1 20.7-20.7h3.45a20.7 20.7 0 0 1 20.7 20.7v213.905a20.715 20.715 0 0 1-20.7 20.7h-3.45a20.715 20.715 0 0 1-20.7-20.7zM519.225 912.2a20.7 20.7 0 0 1 20.7-20.7h3.45a20.7 20.7 0 0 1 20.7 20.7v117.3c0 5.49-2.181 10.76-6.063 14.64a20.7 20.7 0 0 1-14.637 6.06h-3.45c-5.49 0-10.755-2.18-14.637-6.06a20.7 20.7 0 0 1-6.063-14.64zm-82.8-98.325a20.7 20.7 0 0 1 20.7-20.7h3.45a20.7 20.7 0 0 1 20.7 20.7V915.65a20.7 20.7 0 0 1-20.7 20.7h-3.45a20.7 20.7 0 0 1-20.7-20.7zm122.475-165.6a20.7 20.7 0 0 1 20.7-20.7h3.45a20.7 20.7 0 0 1 20.7 20.7v113.85a20.7 20.7 0 0 1-20.7 20.7h-3.45a20.7 20.7 0 0 1-20.7-20.7zm108.675-465.75a20.7 20.7 0 0 1 20.7-20.7h3.45a20.7 20.7 0 0 1 20.7 20.7v469.2a20.7 20.7 0 0 1-20.7 20.7h-3.45a20.7 20.7 0 0 1-20.7-20.7zm0 576.15a20.7 20.7 0 0 1 20.7-20.7h3.45a20.7 20.7 0 0 1 20.7 20.7v469.205a20.715 20.715 0 0 1-20.7 20.7h-3.45a20.715 20.715 0 0 1-20.7-20.7z"
        fill="#000"
    />
    <path
        d="M308.775 510.275a20.7 20.7 0 0 1-20.7-20.7v-3.45a20.7 20.7 0 0 1 20.7-20.7h227.7a20.7 20.7 0 0 1 20.7 20.7v3.45a20.7 20.7 0 0 1-20.7 20.7zm531.3 0a20.7 20.7 0 0 1-20.7-20.7v-3.45a20.7 20.7 0 0 1 20.7-20.7h234.605a20.715 20.715 0 0 1 20.7 20.7v3.45a20.715 20.715 0 0 1-20.7 20.7zm20.7 313.95a20.7 20.7 0 0 1-20.7-20.7v-3.45a20.7 20.7 0 0 1 20.7-20.7h234.605a20.715 20.715 0 0 1 20.7 20.7v3.45a20.715 20.715 0 0 1-20.7 20.7zm-626.175 13.8a20.7 20.7 0 0 1-20.7-20.7v-3.45a20.7 20.7 0 0 1 20.7-20.7h225.975a20.7 20.7 0 0 1 20.7 20.7v3.45a20.7 20.7 0 0 1-20.7 20.7zm222.525 98.325a20.7 20.7 0 0 1-20.7-20.7v-3.45a20.7 20.7 0 0 1 20.7-20.7h86.25a20.7 20.7 0 0 1 20.7 20.7v3.45a20.7 20.7 0 0 1-20.7 20.7zM579.6 782.825a20.7 20.7 0 0 1-20.7-20.7v-3.45a20.7 20.7 0 0 1 20.7-20.7h112.125a20.7 20.7 0 0 1 20.7 20.7v3.45a20.7 20.7 0 0 1-20.7 20.7zm108.675-110.4a20.7 20.7 0 0 1-20.7-20.7v-3.45a20.7 20.7 0 0 1 20.7-20.7h493.355a20.715 20.715 0 0 1 20.7 20.7v3.45a20.715 20.715 0 0 1-20.7 20.7zm-543.375 0a20.7 20.7 0 0 1-20.7-20.7v-3.45a20.7 20.7 0 0 1 20.7-20.7h438.15a20.7 20.7 0 0 1 20.7 20.7v3.45a20.7 20.7 0 0 1-20.7 20.7z"
        fill="#000"
    />
    <path
        opacity=".9"
        d="M309.088 617.28q-10.112 0-15.488-5.76-5.248-5.76-5.248-16.256v-48.128q0-10.496 5.248-16.256 5.376-5.76 15.488-5.76t15.36 5.76q5.376 5.76 5.376 16.256v9.472h-13.312V546.24q0-8.32-7.04-8.32t-7.04 8.32v50.048q0 8.192 7.04 8.192t7.04-8.192v-13.696h13.312v12.672q0 10.496-5.376 16.256-5.249 5.76-15.36 5.76m43.362 0q-10.368 0-15.872-5.888t-5.504-16.64v-47.104q0-10.752 5.504-16.64t15.872-5.888 15.872 5.888 5.504 16.64v47.104q0 10.752-5.504 16.64t-15.872 5.888m0-12.8q7.296 0 7.296-8.832v-48.896q0-8.832-7.296-8.832t-7.296 8.832v48.896q0 8.832 7.296 8.832m24.498-78.08h20.096l8.96 64.128h.256l8.96-64.128h20.096V616h-13.312v-67.84h-.256L411.508 616h-11.776l-10.24-67.84h-.256V616h-12.288zm62.475 0h20.736q10.495 0 15.744 5.632 5.248 5.633 5.248 16.512v8.832q0 10.88-5.248 16.512t-15.744 5.632h-6.656V616h-14.08zm20.736 40.32q3.456 0 5.12-1.92 1.792-1.92 1.792-6.528v-10.624q0-4.608-1.792-6.528-1.664-1.92-5.12-1.92h-6.656v27.52zm42.719 50.56q-10.24 0-15.616-5.76-5.376-5.888-5.376-16.768V526.4h14.08v69.376q0 4.608 1.792 6.656 1.92 2.048 5.376 2.048t5.248-2.048q1.92-2.048 1.92-6.656V526.4h13.568v68.352q0 10.88-5.376 16.768-5.376 5.76-15.616 5.76m35.628-78.08h-14.72v-12.8h43.52v12.8h-14.72V616h-14.08zm29.217-12.8h38.4v12.8h-24.32v23.68h19.328v12.8h-19.328v27.52h24.32V616h-38.4zm40.1 0h20.864q10.88 0 15.872 5.12 4.992 4.992 4.992 15.488v5.504q0 13.951-9.216 17.664v.256q5.12 1.536 7.168 6.272 2.176 4.736 2.176 12.672v15.744q0 3.84.256 6.272.256 2.304 1.28 4.608h-14.336q-.768-2.176-1.024-4.096t-.256-6.912v-16.384q0-6.144-2.048-8.576-1.92-2.432-6.784-2.432h-4.864V616h-14.08zm19.2 38.4q4.224 0 6.272-2.176 2.176-2.177 2.176-7.296v-6.912q0-4.864-1.792-7.04-1.663-2.176-5.376-2.176h-6.4v25.6zm124.529 52.48q-10.24 0-15.488-5.76-5.248-5.888-5.248-16.768v-5.12h13.312v6.144q0 8.704 7.296 8.704 3.583 0 5.376-2.048 1.92-2.177 1.92-6.912 0-5.632-2.56-9.856-2.56-4.351-9.472-10.368-8.704-7.68-12.16-13.824-3.456-6.272-3.456-14.08 0-10.624 5.376-16.384 5.376-5.888 15.616-5.888 10.112 0 15.232 5.888 5.248 5.76 5.248 16.64v3.712h-13.312v-4.608q0-4.608-1.792-6.656-1.792-2.176-5.248-2.176-7.04 0-7.04 8.576 0 4.864 2.56 9.088 2.688 4.224 9.6 10.24 8.832 7.68 12.16 13.952t3.328 14.72q0 11.009-5.504 16.896-5.376 5.888-15.744 5.888m42.761 0q-10.112 0-15.488-5.76-5.248-5.76-5.248-16.256v-48.128q0-10.496 5.248-16.256 5.376-5.76 15.488-5.76t15.36 5.76q5.376 5.76 5.376 16.256v9.472h-13.312V546.24q0-8.32-7.04-8.32t-7.04 8.32v50.048q0 8.192 7.04 8.192t7.04-8.192v-13.696h13.312v12.672q0 10.496-5.376 16.256-5.249 5.76-15.36 5.76m22.76-90.88h14.08V616h-14.08zm18.225 0h38.4v12.8h-24.32v23.68h19.328v12.8h-19.328v27.52h24.32V616h-38.4zm40.1 0h17.664l13.696 53.632h.256V526.4h12.544V616h-14.464l-16.896-65.408h-.256V616h-12.544zm68.065 90.88q-10.112 0-15.488-5.76-5.248-5.76-5.248-16.256v-48.128q0-10.496 5.248-16.256 5.376-5.76 15.488-5.76t15.36 5.76q5.376 5.76 5.376 16.256v9.472h-13.312V546.24q0-8.32-7.04-8.32t-7.04 8.32v50.048q0 8.192 7.04 8.192t7.04-8.192v-13.696h13.312v12.672q0 10.496-5.376 16.256-5.249 5.76-15.36 5.76m22.76-90.88h38.397v12.8h-24.317v23.68h19.328v12.8h-19.328v27.52h24.317V616h-38.397zM259.552 778.28q-10.24 0-15.488-5.76-5.248-5.888-5.248-16.768v-5.12h13.312v6.144q0 8.704 7.296 8.704 3.583 0 5.376-2.048 1.92-2.177 1.92-6.912 0-5.632-2.56-9.856-2.56-4.351-9.472-10.368-8.704-7.68-12.16-13.824-3.456-6.272-3.456-14.08 0-10.624 5.376-16.384 5.376-5.888 15.616-5.888 10.112 0 15.232 5.888 5.248 5.76 5.248 16.64v3.712h-13.312v-4.608q0-4.608-1.792-6.656-1.792-2.176-5.248-2.176-7.04 0-7.04 8.576 0 4.864 2.56 9.088 2.688 4.224 9.6 10.24 8.832 7.68 12.16 13.952t3.328 14.72q0 11.009-5.504 16.896-5.376 5.888-15.744 5.888m33.929-78.08h-14.72v-12.8h43.52v12.8h-14.72V777h-14.08zm49.697 78.08q-10.24 0-15.616-5.76-5.376-5.888-5.376-16.768V687.4h14.08v69.376q0 4.608 1.792 6.656 1.92 2.048 5.376 2.048t5.248-2.048q1.92-2.048 1.92-6.656V687.4h13.568v68.352q0 10.88-5.376 16.768-5.376 5.76-15.616 5.76m24.62-90.88h21.504q10.495 0 15.744 5.632 5.248 5.632 5.248 16.512v45.312q0 10.88-5.248 16.512T389.302 777h-21.504zm21.248 76.8q3.456 0 5.248-2.048 1.92-2.048 1.92-6.656v-46.592q0-4.608-1.92-6.656-1.792-2.048-5.248-2.048h-7.168v64zm24.352-76.8h38.4v12.8h-24.32v23.68h19.328v12.8h-19.328v27.52h24.32V777h-38.4zm40.1 0h17.664l13.696 53.632h.256V687.4h12.544V777h-14.464l-16.896-65.408h-.256V777h-12.544zm59.233 12.8h-14.72v-12.8h43.52v12.8h-14.72V777h-14.08zm240.997 78.08q-10.24 0-15.616-5.76-5.376-5.888-5.376-16.768V687.4h14.08v69.376q0 4.608 1.792 6.656 1.92 2.048 5.376 2.048t5.248-2.048q1.92-2.048 1.92-6.656V687.4h13.568v68.352q0 10.88-5.376 16.768-5.376 5.76-15.616 5.76m24.62-90.88h17.664l13.696 53.632h.256V687.4h12.544V777h-14.464l-16.896-65.408h-.256V777h-12.544zm48.225 0h14.08V777h-14.08zm38.577 90.88q-10.368 0-15.872-5.888t-5.504-16.64v-47.104q0-10.752 5.504-16.64t15.872-5.888 15.872 5.888 5.504 16.64v47.104q0 10.752-5.504 16.64t-15.872 5.888m0-12.8q7.296 0 7.296-8.832v-48.896q0-8.832-7.296-8.832t-7.296 8.832v48.896q0 8.832 7.296 8.832m24.498-78.08h17.664l13.696 53.632h.256V687.4h12.544V777h-14.464l-16.896-65.408h-.256V777h-12.544z"
        fill="#000"
    />
</svg>