<svg width="400" height="400" viewBox="0 0 400 400" fill="none" xmlns="http://www.w3.org/2000/svg">
  <path d="M171 86c0 8.837-7.163 16-16 16s-16-7.163-16-16 7.163-16 16-16 16 7.163 16 16m-81 67c0 8.837-7.163 16-16 16s-16-7.163-16-16 7.163-16 16-16 16 7.163 16 16m-32 47c0 8.837-7.163 16-16 16s-16-7.163-16-16 7.163-16 16-16 16 7.163 16 16m302 0c0 8.837-7.163 16-16 16s-16-7.163-16-16 7.163-16 16-16 16 7.163 16 16M91 248c0 8.837-7.163 16-16 16s-16-7.163-16-16 7.163-16 16-16 16 7.163 16 16m251-95c0 8.837-7.163 16-16 16s-16-7.163-16-16 7.163-16 16-16 16 7.163 16 16m6 91c0 8.837-7.163 16-16 16s-16-7.163-16-16 7.163-16 16-16 16 7.163 16 16M216 49c0 8.837-7.163 16-16 16s-16-7.163-16-16 7.163-16 16-16 16 7.163 16 16m0 310c0 8.837-7.163 16-16 16s-16-7.163-16-16 7.163-16 16-16 16 7.163 16 16m44-273c0 8.837-7.163 16-16 16s-16-7.163-16-16 7.163-16 16-16 16 7.163 16 16m-87 235c0 8.837-7.163 16-16 16s-16-7.163-16-16 7.163-16 16-16 16 7.163 16 16m93 0c0 8.837-7.163 16-16 16s-16-7.163-16-16 7.163-16 16-16 16 7.163 16 16" fill="#000"/>
  <path d="M148.5 91.5a6 6 0 0 1 6-6h1a6 6 0 0 1 6 6v62a6 6 0 0 1-6 6h-1a6 6 0 0 1-6-6zm89 0a6 6 0 0 1 6-6h1a6 6 0 0 1 6 6v62a6 6 0 0 1-6 6h-1a6 6 0 0 1-6-6zm6 152a6 6 0 0 1 6-6h1a6 6 0 0 1 6 6v62a6 6 0 0 1-6 6h-1a6 6 0 0 1-6-6zm-93 32.5a6 6 0 0 1 6-6h1a6 6 0 0 1 6 6v34a6 6 0 0 1-6 6h-1a6 6 0 0 1-6-6zm-24-28.5a6 6 0 0 1 6-6h1a6 6 0 0 1 6 6V277a6 6 0 0 1-6 6h-1a6 6 0 0 1-6-6zm35.5-48a6 6 0 0 1 6-6h1a6 6 0 0 1 6 6v33a6 6 0 0 1-6 6h-1a6 6 0 0 1-6-6zm31.5-135a6 6 0 0 1 6-6h1a6 6 0 0 1 6 6v136a6 6 0 0 1-6 6h-1a6 6 0 0 1-6-6zm0 167a6 6 0 0 1 6-6h1a6 6 0 0 1 6 6v136a6 6 0 0 1-6 6h-1a6 6 0 0 1-6-6z" fill="#000"/>
  <path d="M89.5 159.5a6 6 0 0 1-6-6v-1a6 6 0 0 1 6-6h66a6 6 0 0 1 6 6v1a6 6 0 0 1-6 6zm154 0a6 6 0 0 1-6-6v-1a6 6 0 0 1 6-6h68a6 6 0 0 1 6 6v1a6 6 0 0 1-6 6zm6 91a6 6 0 0 1-6-6v-1a6 6 0 0 1 6-6h68a6 6 0 0 1 6 6v1a6 6 0 0 1-6 6zm-181.5 4a6 6 0 0 1-6-6v-1a6 6 0 0 1 6-6h65.5a6 6 0 0 1 6 6v1a6 6 0 0 1-6 6zm64.5 28.5a6 6 0 0 1-6-6v-1a6 6 0 0 1 6-6h25a6 6 0 0 1 6 6v1a6 6 0 0 1-6 6zm35.5-44.5a6 6 0 0 1-6-6v-1a6 6 0 0 1 6-6h32.5a6 6 0 0 1 6 6v1a6 6 0 0 1-6 6zm31.5-32a6 6 0 0 1-6-6v-1a6 6 0 0 1 6-6h143a6 6 0 0 1 6 6v1a6 6 0 0 1-6 6zm-157.5 0a6 6 0 0 1-6-6v-1a6 6 0 0 1 6-6h127a6 6 0 0 1 6 6v1a6 6 0 0 1-6 6z" fill="#000"/>
</svg>